<svg version="1.1" xmlns="http://www.w3.org/2000/svg" xmlns:xlink="http://www.w3.org/1999/xlink" width="1384" height="359" viewBox="0 0 1384 359"><defs/><g transform="matrix(1,0,0,1,0,0)"><g><g><g><path fill="none" stroke="#d3d3d3" paint-order="fill stroke markers" d=" M 0 0 L 1200 0" stroke-miterlimit="10" stroke-opacity="0.8" stroke-dasharray="5"/></g><g><path fill="none" stroke="#d3d3d3" paint-order="fill stroke markers" d=" M 0 0 L 0 800" stroke-miterlimit="10" stroke-opacity="0.8" stroke-dasharray="5"/></g></g><g id="_69BB84D4-5D43-4C89-B9D1-BDCADA82E847" bpmn2nodeid="_69BB84D4-5D43-4C89-B9D1-BDCADA82E847" transform="matrix(1,0,0,1,51,162)"><g><path fill="none" stroke="none"/></g><g transform="matrix(0.125,0,0,0.125,0,0)"><g transform="matrix(1,0,0,1,0,0)"><path fill="#e8fae6" stroke="none" id="_69BB84D4-5D43-4C89-B9D1-BDCADA82E847?shapeType=BACKGROUND" paint-order="stroke fill markers" d=" M 0 0 M 444 224 C 444 263.9 434.2 300.8 414.4 334.5 C 394.7 368.2 368 394.9 334.4 414.5 C 300.79999999999995 434.1 263.9 444 224 444 C 184.10000000000002 444 147.2 434.2 113.5 414.4 C 79.8 394.7 53.1 368 33.5 334.4 C 13.899999999999999 300.79999999999995 4 263.9 4 224 C 4 184.10000000000002 13.8 147.2 33.6 113.5 C 53.400000000000006 79.80000000000001 80.1 53.1 113.6 33.5 C 147.1 13.899999999999999 184.1 4 224 4 C 263.9 4 300.8 13.8 334.5 33.6 C 368.2 53.400000000000006 394.9 80.1 414.5 113.6 C 434.1 147.1 444 184.1 444 224 Z"/></g><g><g transform="matrix(1,0,0,1,0,0)"><g transform="matrix(1,0,0,1,0,0)"><path fill="rgb(74,162,65)" stroke="none" id="_69BB84D4-5D43-4C89-B9D1-BDCADA82E847?shapeType=BORDER&amp;renderType=FILL" paint-order="stroke fill markers" d=" M 0 0 M 224 0 C 100.3 0 0 100.3 0 224 C 0 347.7 100.3 448 224 448 C 347.7 448 448 347.7 448 224 C 448 100.30000000000001 347.7 0 224 0 Z M 0 0 M 224 432 C 109.1 432 16 338.9 16 224 C 16 109.10000000000002 109.1 16 224 16 C 338.9 16 432 109.1 432 224 C 432 338.9 338.9 432 224 432 Z"/></g></g></g></g><g transform="matrix(1,0,0,1,28,61)"/></g><g transform="matrix(1,0,0,1,51,162)"/><g id="_C5AE605F-5D24-4E3D-8781-337F2521FC05" bpmn2nodeid="_C5AE605F-5D24-4E3D-8781-337F2521FC05" transform="matrix(1,0,0,1,187,139)"><g><path fill="none" stroke="none"/></g><g transform="matrix(1,0,0,1,0,0)"><path fill="#ffffff" stroke="none" id="_C5AE605F-5D24-4E3D-8781-337F2521FC05?shapeType=BACKGROUND" paint-order="stroke fill markers" d=" M 2 0 L 152 0 L 152 0 A 2 2 0 0 1 154 2 L 154 100 L 154 100 A 2 2 0 0 1 152 102 L 2 102 L 2 102 A 2 2 0 0 1 0 100 L 0 2 L 0 2.0000000000000004 A 2 2 0 0 1 1.9999999999999996 0 Z"/></g><g transform="matrix(1,0,0,1,0,0)"><path fill="none" stroke="rgb(0,0,0)" id="_C5AE605F-5D24-4E3D-8781-337F2521FC05?shapeType=BORDER&amp;renderType=STROKE" paint-order="fill stroke markers" d=" M 2 0 L 152 0 L 152 0 A 2 2 0 0 1 154 2 L 154 100 L 154 100 A 2 2 0 0 1 152 102 L 2 102 L 2 102 A 2 2 0 0 1 0 100 L 0 2 L 0 2.0000000000000004 A 2 2 0 0 1 1.9999999999999996 0 Z" stroke-miterlimit="10" stroke-width="1.5" stroke-dasharray=""/></g><g transform="matrix(1,0,0,1,60.75,43.5)"><text fill="#000000" stroke="none" font-family="Open Sans" font-size="12pt" font-style="normal" font-weight="normal" text-decoration="normal" x="16.25" y="12" text-anchor="middle" dominant-baseline="alphabetic">Task</text></g></g><g id="_9ECB39C2-8971-4FEA-9FE0-54B787EE5295" bpmn2nodeid="_9ECB39C2-8971-4FEA-9FE0-54B787EE5295"><g><path fill="none" stroke="#000000" paint-order="fill stroke markers" d=" M 107 190 L 172 190" stroke-miterlimit="10" stroke-dasharray=""/></g><g transform="matrix(1,0,0,1,107,190)"/><g transform="matrix(6.123233995736766e-17,1,-1,6.123233995736766e-17,187,185)"><path fill="#000000" stroke="#000000" paint-order="fill stroke markers" d=" M 10 15 L 0 15 L 5 0 Z" stroke-miterlimit="10" stroke-dasharray=""/></g><g transform="matrix(1,0,0,1,107,180)"/></g><g transform="matrix(1,0,0,1,187,139)"/><g id="_071DF02D-0038-4A67-9465-54F36CB57FC8" bpmn2nodeid="_071DF02D-0038-4A67-9465-54F36CB57FC8" transform="matrix(1,0,0,1,412,65)"><g><path fill="none" stroke="none"/></g><g transform="matrix(1,0,0,1,0,0)"><path fill="#ffffff" stroke="none" id="_071DF02D-0038-4A67-9465-54F36CB57FC8?shapeType=BACKGROUND" paint-order="stroke fill markers" d=" M 5 0 L 505 0 L 505 0 A 5 5 0 0 1 510 5 L 510 239 L 510 239 A 5 5 0 0 1 505 244 L 5 244 L 5 244 A 5 5 0 0 1 0 239 L 0 5 L 0 5.000000000000001 A 5 5 0 0 1 4.999999999999999 0 Z"/></g><g transform="matrix(1,0,0,1,0,0)"><path fill="none" stroke="rgb(255,0,0)" id="_071DF02D-0038-4A67-9465-54F36CB57FC8?shapeType=BORDER&amp;renderType=STROKE" paint-order="fill stroke markers" d=" M 5 0 L 505 0 L 505 0 A 5 5 0 0 1 510 5 L 510 239 L 510 239 A 5 5 0 0 1 505 244 L 5 244 L 5 244 A 5 5 0 0 1 0 239 L 0 5 L 0 5.000000000000001 A 5 5 0 0 1 4.999999999999999 0 Z" stroke-miterlimit="10" stroke-width="1.5" stroke-dasharray=""/></g><g transform="matrix(1,0,0,1,143.44140625,0)"><text fill="#000000" stroke="none" font-family="Open Sans" font-size="12pt" font-style="normal" font-weight="normal" text-decoration="normal" x="111.55859375" y="12" text-anchor="middle" dominant-baseline="alphabetic">Multiple Instance Sub-process</text></g><g transform="matrix(1,0,0,1,-42,11)"><g transform="matrix(0.05,0,0,0.05,285,209)"><g transform="matrix(1,0,0,1,0,0)"><path fill="#000000" stroke="#000000" id="_071DF02D-0038-4A67-9465-54F36CB57FC8undefined" paint-order="fill stroke markers" d=" M 0 0 M 92 44 L 92 468 C 92 474.6 86.6 480 80 480 L 48 480 C 41.4 480 36 474.6 36 468 L 36 44 C 36 37.4 41.4 32 48 32 L 80 32 C 86.6 32 92 37.4 92 44 Z M 0 0 M 252 44 L 252 468 C 252 474.6 246.6 480 240 480 L 208 480 C 201.4 480 196 474.6 196 468 L 196 44 C 196 37.4 201.4 32 208 32 L 240 32 C 246.6 32 252 37.4 252 44 Z M 0 0 M 412 44 L 412 468 C 412 474.6 406.6 480 400 480 L 368 480 C 361.4 480 356 474.6 356 468 L 356 44 C 356 37.4 361.4 32 368 32 L 400 32 C 406.6 32 412 37.4 412 44 Z" stroke-miterlimit="10" stroke-dasharray=""/></g><g transform="matrix(1,0,0,1,0,0)"><path fill="none" stroke="none"/></g></g></g></g><g id="_C5BE1C7A-71BE-4B58-92E8-CB5F74CE46E4" bpmn2nodeid="_C5BE1C7A-71BE-4B58-92E8-CB5F74CE46E4"><g><path fill="none" stroke="rgb(0,0,0)" paint-order="fill stroke markers" d=" M 341 189.42865722818442 L 397.00041623676236 189.0114614745809" stroke-miterlimit="10" stroke-dasharray=""/></g><g transform="matrix(1,0,0,1,341,189.42865722818442)"/><g transform="matrix(0.007449662070827841,0.9999722508825085,-0.9999722508825085,0.007449662070827841,411.96275168964587,183.89985528910594)"><path fill="rgb(0,0,0)" stroke="rgb(0,0,0)" paint-order="fill stroke markers" d=" M 10 15 L 0 15 L 5 0 Z" stroke-miterlimit="10" stroke-dasharray=""/></g><g transform="matrix(1,0,0,1,341.07449662070826,179.16446437702638)"/></g><g transform="matrix(1,0,0,1,412,65)"/><g id="_5568F624-FAFD-4CE5-82F3-151DEDF80124" bpmn2nodeid="_5568F624-FAFD-4CE5-82F3-151DEDF80124" transform="matrix(1,0,0,1,1023,136)"><g><path fill="none" stroke="none"/></g><g transform="matrix(1,0,0,1,0,0)"><path fill="#ffffff" stroke="none" id="_5568F624-FAFD-4CE5-82F3-151DEDF80124?shapeType=BACKGROUND" paint-order="stroke fill markers" d=" M 2 0 L 152 0 L 152 0 A 2 2 0 0 1 154 2 L 154 100 L 154 100 A 2 2 0 0 1 152 102 L 2 102 L 2 102 A 2 2 0 0 1 0 100 L 0 2 L 0 2.0000000000000004 A 2 2 0 0 1 1.9999999999999996 0 Z"/></g><g transform="matrix(1,0,0,1,0,0)"><path fill="none" stroke="rgb(0,0,0)" id="_5568F624-FAFD-4CE5-82F3-151DEDF80124?shapeType=BORDER&amp;renderType=STROKE" paint-order="fill stroke markers" d=" M 2 0 L 152 0 L 152 0 A 2 2 0 0 1 154 2 L 154 100 L 154 100 A 2 2 0 0 1 152 102 L 2 102 L 2 102 A 2 2 0 0 1 0 100 L 0 2 L 0 2.0000000000000004 A 2 2 0 0 1 1.9999999999999996 0 Z" stroke-miterlimit="10" stroke-width="1.5" stroke-dasharray=""/></g><g transform="matrix(1,0,0,1,60.75,43.5)"><text fill="#000000" stroke="none" font-family="Open Sans" font-size="12pt" font-style="normal" font-weight="normal" text-decoration="normal" x="16.25" y="12" text-anchor="middle" dominant-baseline="alphabetic">Task</text></g></g><g id="_CEDA3F31-9586-4C47-8E68-BE8F80AE8D70" bpmn2nodeid="_CEDA3F31-9586-4C47-8E68-BE8F80AE8D70"><g><path fill="none" stroke="#000000" paint-order="fill stroke markers" d=" M 922 187 L 1008 187" stroke-miterlimit="10" stroke-dasharray=""/></g><g transform="matrix(1,0,0,1,922,187)"/><g transform="matrix(6.123233995736766e-17,1,-1,6.123233995736766e-17,1023,182)"><path fill="#000000" stroke="#000000" paint-order="fill stroke markers" d=" M 10 15 L 0 15 L 5 0 Z" stroke-miterlimit="10" stroke-dasharray=""/></g><g transform="matrix(1,0,0,1,922,177)"/></g><g transform="matrix(1,0,0,1,1023,136)"/><g id="_7DB4E22F-0EE1-4AD9-8892-4E6DC7BC1AF1" bpmn2nodeid="_7DB4E22F-0EE1-4AD9-8892-4E6DC7BC1AF1" transform="matrix(1,0,0,1,1278,159)"><g><path fill="none" stroke="none"/></g><g transform="matrix(0.125,0,0,0.125,0,0)"><g transform="matrix(1,0,0,1,0,0)"><path fill="#fce7e7" stroke="none" id="_7DB4E22F-0EE1-4AD9-8892-4E6DC7BC1AF1?shapeType=BACKGROUND" paint-order="stroke fill markers" d=" M 0 0 M 444 224 C 444 263.9 434.2 300.8 414.4 334.5 C 394.7 368.2 368 394.9 334.4 414.5 C 300.79999999999995 434.1 263.9 444 224 444 C 184.10000000000002 444 147.2 434.2 113.5 414.4 C 79.8 394.7 53.1 368 33.5 334.4 C 13.899999999999999 300.79999999999995 4 263.9 4 224 C 4 184.10000000000002 13.8 147.2 33.6 113.5 C 53.400000000000006 79.80000000000001 80.1 53.1 113.6 33.5 C 147.1 13.899999999999999 184.1 4 224 4 C 263.9 4 300.8 13.8 334.5 33.6 C 368.2 53.400000000000006 394.9 80.1 414.5 113.6 C 434.1 147.1 444 184.1 444 224 Z"/></g><g><g transform="matrix(1,0,0,1,0,0)"><g transform="matrix(1,0,0,1,0,0)"><path fill="rgb(163,0,0)" stroke="none" id="_7DB4E22F-0EE1-4AD9-8892-4E6DC7BC1AF1?shapeType=BORDER&amp;renderType=FILL" paint-order="stroke fill markers" d=" M 0 0 M 224 0 C 100.3 0 0 100.3 0 224 C 0 347.7 100.3 448 224 448 C 347.7 448 448 347.7 448 224 C 448 100.30000000000001 347.7 0 224 0 Z M 0 0 M 224 400 C 126.8 400 48 321.2 48 224 C 48 126.80000000000001 126.8 48 224 48 C 321.2 48 400 126.8 400 224 C 400 321.2 321.2 400 224 400 Z"/></g></g></g></g><g transform="matrix(1,0,0,1,28,61)"/></g><g id="_050C18DE-C1EE-4DFE-BE99-8CB49BF3CC1E" bpmn2nodeid="_050C18DE-C1EE-4DFE-BE99-8CB49BF3CC1E"><g><path fill="none" stroke="#000000" paint-order="fill stroke markers" d=" M 1177 187 L 1263 187" stroke-miterlimit="10" stroke-dasharray=""/></g><g transform="matrix(1,0,0,1,1177,187)"/><g transform="matrix(6.123233995736766e-17,1,-1,6.123233995736766e-17,1278,182)"><path fill="#000000" stroke="#000000" paint-order="fill stroke markers" d=" M 10 15 L 0 15 L 5 0 Z" stroke-miterlimit="10" stroke-dasharray=""/></g><g transform="matrix(1,0,0,1,1177,177)"/></g><g transform="matrix(1,0,0,1,1278,159)"/></g></g></svg>